<?xml version="1.0" encoding="UTF-8" standalone="no"?>
<!-- Created with Inkscape (http://www.inkscape.org/) -->

<svg
   xmlns:dc="http://purl.org/dc/elements/1.1/"
   xmlns:cc="http://creativecommons.org/ns#"
   xmlns:rdf="http://www.w3.org/1999/02/22-rdf-syntax-ns#"
   xmlns:svg="http://www.w3.org/2000/svg"
   xmlns="http://www.w3.org/2000/svg"
   xmlns:sodipodi="http://sodipodi.sourceforge.net/DTD/sodipodi-0.dtd"
   xmlns:inkscape="http://www.inkscape.org/namespaces/inkscape"
   width="16"
   height="16"
   viewBox="0 0 4.2333333 4.2333335"
   version="1.1"
   id="svg5218"
   inkscape:version="0.92.4 (5da689c313, 2019-01-14)"
   sodipodi:docname="cl.svg">
  <defs
     id="defs5212" />
  <sodipodi:namedview
     id="base"
     pagecolor="#ffffff"
     bordercolor="#666666"
     borderopacity="1.0"
     inkscape:pageopacity="0.0"
     inkscape:pageshadow="2"
     inkscape:zoom="11.2"
     inkscape:cx="3.485879"
     inkscape:cy="7.1507988"
     inkscape:document-units="px"
     inkscape:current-layer="layer1"
     showgrid="false"
     units="px"
     inkscape:pagecheckerboard="true"
     inkscape:window-width="1366"
     inkscape:window-height="705"
     inkscape:window-x="-8"
     inkscape:window-y="-8"
     inkscape:window-maximized="1" />
  <metadata
     id="metadata5215">
    <rdf:RDF>
      <cc:Work
         rdf:about="">
        <dc:format>image/svg+xml</dc:format>
        <dc:type
           rdf:resource="http://purl.org/dc/dcmitype/StillImage" />
        <dc:title />
      </cc:Work>
    </rdf:RDF>
  </metadata>
  <g
     inkscape:label="Layer 1"
     inkscape:groupmode="layer"
     id="layer1"
     transform="translate(0,-292.76665)">
    <path
       style="color:#000000;font-style:normal;font-variant:normal;font-weight:normal;font-stretch:normal;font-size:medium;line-height:normal;font-family:sans-serif;font-variant-ligatures:normal;font-variant-position:normal;font-variant-caps:normal;font-variant-numeric:normal;font-variant-alternates:normal;font-feature-settings:normal;text-indent:0;text-align:start;text-decoration:none;text-decoration-line:none;text-decoration-style:solid;text-decoration-color:#000000;letter-spacing:normal;word-spacing:normal;text-transform:none;writing-mode:lr-tb;direction:ltr;text-orientation:mixed;dominant-baseline:auto;baseline-shift:baseline;text-anchor:start;white-space:normal;shape-padding:0;clip-rule:nonzero;display:inline;overflow:visible;visibility:visible;opacity:1;isolation:auto;mix-blend-mode:normal;color-interpolation:sRGB;color-interpolation-filters:linearRGB;solid-color:#000000;solid-opacity:1;vector-effect:none;fill:#00000f;fill-opacity:0.94117647;fill-rule:nonzero;stroke:none;stroke-width:0.25658825;stroke-linecap:round;stroke-linejoin:round;stroke-miterlimit:4;stroke-dasharray:none;stroke-dashoffset:0;stroke-opacity:1;color-rendering:auto;image-rendering:auto;shape-rendering:auto;text-rendering:auto;enable-background:accumulate"
       d="m 1.0136719,292.78516 c -0.15651975,0.0415 -0.34332713,0.14415 -0.52539065,0.27539 -0.18206352,0.13124 -0.35530196,0.28891 -0.45898437,0.46289 a 0.12830695,0.12830695 0 0 0 -0.01757813,0.0703 c 0.06496072,1.91101 1.75188835,3.46577 3.45703125,3.40039 a 0.12830695,0.12830695 0 0 0 0.080078,-0.0312 c 0.1327592,-0.11614 0.2823242,-0.27779 0.4082031,-0.45117 0.125879,-0.17338 0.2296128,-0.3539 0.2558594,-0.53711 a 0.12830695,0.12830695 0 0 0 0,-0.002 c 0.0098,-0.0758 0.00758,-0.15773 -0.023437,-0.23633 -0.030538,-0.0774 -0.099761,-0.15236 -0.1933593,-0.18164 l -0.8828126,-0.28321 a 0.12830695,0.12830695 0 0 0 -0.00391,0 c -0.1736937,-0.0511 -0.348994,0.0423 -0.4277344,0.19141 l -0.1679687,0.24219 c -0.015545,0.0157 -0.029978,0.021 -0.0625,0.0195 -0.031644,-0.001 -0.072553,-0.0144 -0.1035157,-0.0312 -0.3779275,-0.26089 -0.7834061,-0.67418 -1.0292968,-1.0332 -0.025396,-0.0371 -0.0373,-0.0743 -0.037109,-0.0977 1.823e-4,-0.0224 0.00436,-0.0349 0.029297,-0.0547 l 0.2480469,-0.14453 a 0.12830695,0.12830695 0 0 0 0.011719,-0.008 c 0.057219,-0.0428 0.1121681,-0.0951 0.1503906,-0.16602 0.038223,-0.0709 0.051956,-0.16644 0.023437,-0.25586 l -0.296875,-0.92968 c -0.02811,-0.0954 -0.099149,-0.16657 -0.1796875,-0.20118 -0.080539,-0.0346 -0.1693936,-0.04 -0.2539062,-0.0176 z m 0.064453,0.24804 c 0.032007,-0.008 0.066596,-0.005 0.087891,0.004 0.021295,0.009 0.029196,0.0188 0.035156,0.0391 a 0.12830695,0.12830695 0 0 0 0.00195,0.002 L 1.5,294.01172 c 0.00811,0.0254 0.00589,0.0348 -0.00586,0.0566 -0.011463,0.0213 -0.038446,0.0494 -0.076172,0.0781 -9.55e-4,7.3e-4 -9.842e-4,0.001 -0.00195,0.002 l -0.2480468,0.14648 a 0.12830695,0.12830695 0 0 0 -0.011719,0.008 c -0.084291,0.0647 -0.1301089,0.16559 -0.1308594,0.25782 -7.504e-4,0.0922 0.033857,0.17377 0.082031,0.24414 0.2597283,0.37923 0.6635247,0.78323 1.0625,1.0664 0.0011,7.8e-4 8.541e-4,0.003 0.00195,0.004 a 0.12830695,0.12830695 0 0 0 0.03125,0.0312 0.12830695,0.12830695 0 0 0 0.00977,0.006 c 0.063627,0.0369 0.1400788,0.0645 0.2265625,0.0684 0.086484,0.004 0.1879321,-0.0221 0.2617188,-0.0996 a 0.12830695,0.12830695 0 0 0 0.013672,-0.0156 l 0.1855468,-0.26953 a 0.12830695,0.12830695 0 0 0 0.00781,-0.0117 c 0.03367,-0.0638 0.071355,-0.0833 0.1289063,-0.0664 l -0.00195,-0.002 0.8828126,0.28321 a 0.12830695,0.12830695 0 0 0 0.00195,0 c 0.019747,0.006 0.022378,0.0107 0.03125,0.0332 0.00887,0.0225 0.013471,0.0637 0.00781,0.10742 -0.015316,0.10388 -0.096428,0.26685 -0.2089844,0.42188 -0.099953,0.13767 -0.2210667,0.26202 -0.328125,0.36133 -1.51479,0.0325 -3.05992155,-1.36806 -3.14453125,-3.09571 0.0774568,-0.11603 0.20961348,-0.25001 0.36132813,-0.35937 0.16322679,-0.11766 0.34042674,-0.2081 0.43945312,-0.23438 z"
       id="rect4690-9"
       inkscape:connector-curvature="0" />
  </g>
</svg>
