<svg xmlns="http://www.w3.org/2000/svg" width="81.265" height="12.26" viewBox="0 0 81.265 12.26">
  <g id="Group_210" data-name="Group 210" transform="translate(-1176.367 -1964.37)">
    <path id="Path_185" data-name="Path 185" d="M4032,1997s1.25-3.75,5-3,5,6,10,6,5-6,10-6,5,6,10,6,5-6,10-6,5,6,10,6,5-6,10-6,6.25,5.25,10,6,5-3,5-3" transform="translate(-2855 -29)" fill="none" stroke="#f55" stroke-linecap="round" stroke-width="1"/>
    <path id="Path_186" data-name="Path 186" d="M4032,1997s1.25-3.75,5-3,5,6,10,6,5-6,10-6,5,6,10,6,5-6,10-6,5,6,10,6,5-6,10-6,6.25,5.25,10,6,5-3,5-3" transform="translate(-2855 -24)" fill="none" stroke="#f55" stroke-linecap="round" stroke-width="1"/>
  </g>
</svg>
